
        <svg xmlns="http://www.w3.org/2000/svg" xmlns:xlink="http://www.w3.org/1999/xlink" version="1.1" width="3187.5" 
        height="1771.875" viewBox="0 0 3187.5 1771.875">
			
			<g transform="scale(9.375) translate(10, 10)">
				<defs id="SvgjsDefs1343"></defs><g id="SvgjsG1344" featureKey="nameFeature-0" transform="matrix(4.173731676566205,0,0,4.173731676566205,-0.6678004117703837,-80.1356513743757)" fill="#111111"><path d="M17.08 19.76 l5.76 0 l-8.36 20.24 l-5.96 0 l-8.36 -20.24 l5.8 0 l5.56 14.4 z M32.57 40.56 c-6.48 0 -11 -4.28 -11 -10.68 c0 -6.04 4.24 -10.68 10.6 -10.68 c6.64 0 10.44 4.6 10.44 10.4 c0 0.64 0 1.24 -0.12 1.88 l-15.72 0 c0.36 2.6 2.2 4.6 5.88 4.6 c2.56 0 4.12 -1.16 4.92 -2.68 l4.76 1.4 c-1.16 2.64 -4.44 5.76 -9.76 5.76 z M26.77 28.16 l10.68 0 c-0.24 -2.48 -2.16 -4.48 -5.32 -4.48 c-3.08 0 -5.08 2.16 -5.36 4.48 z M49.1 22.76 c1.2 -2.36 3.52 -3.72 6.68 -3.28 l0 4.96 c-4.32 -0.68 -6.68 1.32 -6.68 6.76 l0 8.8 l-5.28 0 l0 -20.24 l5.28 0 l0 3 z M66.03 40.56 c-6.24 0 -10.84 -4.64 -10.84 -10.68 c0 -6.08 4.6 -10.68 10.84 -10.68 s10.8 4.6 10.8 10.68 c0 6.04 -4.56 10.68 -10.8 10.68 z M66.03 35.76 c3.36 0 5.68 -2.52 5.68 -5.88 s-2.32 -5.88 -5.68 -5.88 c-3.4 0 -5.68 2.52 -5.68 5.88 s2.28 5.88 5.68 5.88 z"></path></g><g id="SvgjsG1345" featureKey="sloganFeature-0" transform="matrix(4.225352169431124,0,0,4.225352169431124,82.39436881501062,84.49295661137751)" fill="#111111"><path d="M7.06 5.800000000000001 c3.08 0 5.14 1.8 5.14 5.24 l0 8.96 l-1.38 0 l0 -8.68 c0 -2.9 -1.62 -4.22 -3.76 -4.22 c-1.9 0 -3.88 1.6 -3.88 3.94 l0 8.96 l-1.38 0 l0 -14 l1.38 0 l0 1.72 c0.82 -1.12 2.14 -1.92 3.88 -1.92 z M17.04 7.32 l0 4.92 l4.6 0 l0 1.32 l-4.6 0 l0 6.44 l-1.4 0 l0 -14 l7.9 0 l0.1 1.32 l-6.6 0 z M35.019999999999996 7.32 l-4.24 0 l0 12.68 l-1.4 0 l0 -12.68 l-4.26 0 l0.1 -1.32 l9.7 0 z"></path></g>
			</g>
		</svg>
	